# xmcd CD database file
#
# Track frame offsets:
#	150
#	44783
#	91040
#	118345
#	148142
#	166647
#	188994
#
# Disc length: 2937 seconds
#
# Revision: 0
# Processed by: cddbd v1.5PL3 Copyright (c) Steve Scherf et al.
# Submitted via: CDex 1.50beta10
#
DISCID=600b7707
DTITLE=RML Jazz Family - Family And Friends
DYEAR=2000
DGENRE=Jazz
TTITLE0=Moanin'
TTITLE1=Jive Samba
TTITLE2=Mouna Bowa
TTITLE3=Friday Night at the Cadillac Club
TTITLE4=Walk Tall
TTITLE5=Rhum n' Zouc
TTITLE6=74 Miles Away
EXTD=YEAR: 2000
EXTT0=
EXTT1=
EXTT2=
EXTT3=
EXTT4=
EXTT5=
EXTT6=
PLAYORDER=
